<svg id="3d9cde8c-c484-491b-8211-07072574024b" data-name="Ebene 1" xmlns="http://www.w3.org/2000/svg" viewBox="0 0 320 320">
  <title>Zeichenfläche 1</title>
  <g>
    <polygon points="81.11 103.39 238.96 103.39 160.03 216.6 81.11 103.39" style="fill: #75a246"/>
    <path d="M41.64,294.48c0,11.69-8.84,21.2-19.7,21.2h0c-10.92.07-19.76-9.44-19.76-21.2V167.07c0-11.69,8.84-21.2,19.7-21.2h0c10.92,0,19.7,9.51,19.7,21.2V294.48Z" style="fill: #8a6446"/>
    <path d="M317.88,294.48c0,11.69-8.84,21.2-19.7,21.2h0c-10.92,0-19.7-9.51-19.7-21.2V167.07c0-11.69,8.84-21.2,19.7-21.2h0c10.93,0,19.7,9.51,19.7,21.2Z" style="fill: #8a6446"/>
    <path d="M317.88,294.48c0,11.69-8.84,21.2-19.7,21.2H21.88c-10.86.07-19.7-9.44-19.7-21.2h0c0-11.69,8.84-21.2,19.7-21.2H298.12c10.92,0,19.76,9.51,19.76,21.2Z" style="fill: #8a6446"/>
    <path d="M186.36,117.53c0,7.81-5.93,14.13-13.13,14.13H146.9c-7.26,0-13.14-6.38-13.14-14.13V18.45c0-7.81,5.94-14.13,13.14-14.13h26.33c7.26,0,13.13,6.38,13.13,14.13Z" style="fill: #75a246"/>
  </g>
</svg>
