<svg id="51481173-fc49-4cf5-a89a-0f8c35176e86" data-name="Ebene 1" xmlns="http://www.w3.org/2000/svg" viewBox="0 0 320 320">
  <title>Zeichenfläche 1</title>
  <g id="59c2f183-f813-46fa-bcd0-97bbd2c6cfaf" data-name="rocket ship">
    <g>
      <path d="M83,254.23c-5.7,11.48-9.3,19.07-41,20.2.93-29.6,6.74-32.75,18.43-38.38A104.06,104.06,0,0,0,78,225.87L67,212.25c-5.23,3.89-10,5.91-14.64,8.16-19.47,9.29-28.6,18.51-28.6,62.57l.18,9,8.89-.17c48,0,57-10.52,66-28.58a116.6,116.6,0,0,1,6.4-12L91.8,239.43A84.61,84.61,0,0,0,83,254.23Z" style="fill: #df071d;stroke: #df071d;stroke-miterlimit: 10"/>
      <path d="M223.21,63.82c-20.05,0-36.32,15.81-36.32,35.17s16.33,35.17,36.32,35.17S259.54,118.35,259.54,99,243.27,63.82,223.21,63.82Zm0,52.72c-10,0-18.13-7.87-18.13-17.55s8.14-17.55,18.13-17.55S241.35,89.31,241.35,99,233.21,116.54,223.21,116.54Z" style="fill: #3e4f6c"/>
      <path d="M313.48,20.11a8.93,8.93,0,0,0-8.37-8.22S254.37,8.29,205.6,26c-17.84,6.41-32.49,16.65-46.2,32.12C148,71,136.61,94.26,126.62,113.62c-3.9,7.48-7.56,14.63-10.7,20.09H65.53a9.3,9.3,0,0,0-6.8,2.92L25.54,171.52A8.47,8.47,0,0,0,23.68,180a8.83,8.83,0,0,0,6.63,5.85l54.05,12c3.66,4.39,9.82,11,19.65,21.55l20.46,22,11,45.12a8.86,8.86,0,0,0,6,6.31,9.68,9.68,0,0,0,2.79.45,9,9,0,0,0,5.88-2.14l33.59-32.35a8.67,8.67,0,0,0,3.2-6.64V206.91c4.53-2.7,12.49-6.92,20.05-11,20.51-11.09,51.14-24.93,63.82-35.85,17.9-15.36,24.41-26.67,30.8-43.32C316.91,77.1,313.65,22.41,313.48,20.11Zm-28.83,90.53C279.07,125.21,274,133.87,258.78,147c-11.21,9.68-42,23.52-60.62,33.65-13.95,7.54-22.32,12-26,14.86a8.72,8.72,0,0,0-3.31,6.8v45.86l-19.12,20.31-8.14-33.31a8.94,8.94,0,0,0-2.09-3.88c-16.68-17.89-41.85-44.9-43.77-47a9.44,9.44,0,0,0-5-3l-41.49-9.17L69.6,151.26h51.55a9.12,9.12,0,0,0,7.73-4.16c4-6.3,8.6-15.25,14-25.6,9.07-17.56,20.34-40.74,30.34-52,11.8-13.28,23.71-21.67,38.77-27.12,33.42-12.1,67.94-13.39,83.75-13.28C296,45.31,295.34,82.84,284.65,110.64Z" style="fill: #3e4f6c"/>
    </g>
  </g>
</svg>
